<svg t="1744647704505" class="icon" viewBox="0 0 1024 1024" version="1.1" xmlns="http://www.w3.org/2000/svg" p-id="1829" width="32" height="32"><path d="M0 0m128 0l768 0q128 0 128 128l0 768q0 128-128 128l-768 0q-128 0-128-128l0-768q0-128 128-128Z" fill="#FFFFFF" p-id="1830"></path><path d="M288 736m-224 0a224 224 0 1 0 448 0 224 224 0 1 0-448 0Z" fill="#CC0E0E" p-id="1831"></path><path d="M788 788m-172 0a172 172 0 1 0 344 0 172 172 0 1 0-344 0Z" fill="#000000" p-id="1832"></path><path d="M243 243m-179 0a179 179 0 1 0 358 0 179 179 0 1 0-358 0Z" fill="#000000" p-id="1833"></path><path d="M848 176m-112 0a112 112 0 1 0 224 0 112 112 0 1 0-224 0Z" fill="#000000" p-id="1834"></path><path d="M617 407m-149 0a149 149 0 1 0 298 0 149 149 0 1 0-298 0Z" fill="#000000" p-id="1835"></path><path d="M617 177m-63 0a63 63 0 1 0 126 0 63 63 0 1 0-126 0Z" fill="#CC0E0E" p-id="1836"></path><path d="M849 407m-49 0a49 49 0 1 0 98 0 49 49 0 1 0-98 0Z" fill="#CC0E0E" p-id="1837"></path></svg>